# xmcd CD database file
#
# Track frame offsets:
#	150
#	21035
#	44810
#	68707
#	92940
#	114992
#	152732
#	173162
#	200000
#	223420
#	238442
#	254730
#	271232
#	288362
#	306760
#	324585
#
# Disc length: 4555 seconds
#
# Revision: 1
# Processed by: cddbd v1.4PL0 Copyright (c) Steve Scherf et al.
# Submitted via: CDex 1.50beta10
#
DISCID=fb11c910
DTITLE=Various Artist - Rhythm latino
DYEAR=1900
DGENRE=Salsa
TTITLE0=Para toda la vida
TTITLE1=Pa ti no estoy
TTITLE2=Ponernos de acuerdo
TTITLE3=Suavemente
TTITLE4=Tragedy
TTITLE5=Babarabatiri
TTITLE6=1 2 3
TTITLE7=Lo hare por ti
TTITLE8=Y yo sigo agui
TTITLE9=Bomba
TTITLE10=Mama insegnami a ballar
TTITLE11=Candela
TTITLE12=Salta
TTITLE13=A lo cubano
TTITLE14=Me gustas tu
TTITLE15=Can't get you out of my head
EXTD=
EXTT0=
EXTT1=
EXTT2=
EXTT3=
EXTT4=
EXTT5=
EXTT6=
EXTT7=
EXTT8=
EXTT9=
EXTT10=
EXTT11=
EXTT12=
EXTT13=
EXTT14=
EXTT15=
PLAYORDER=
